<svg id="svg" xmlns="http://www.w3.org/2000/svg" xmlns:xlink="http://www.w3.org/1999/xlink" width="400" height="271.38179436804194" viewBox="0, 0, 400,271.38179436804194"><g id="svgg"><path id="path0" d="M250.362 0.888 C 248.104 2.884,238.287 4.907,224.885 6.138 C 217.928 6.776,212.569 7.064,195.154 7.732 C 193.065 7.812,187.701 8.065,183.235 8.293 C 165.648 9.192,157.864 8.269,148.265 4.143 C 140.095 0.632,133.604 1.335,127.315 6.412 C 123.712 9.322,126.970 9.050,96.922 8.948 C 42.593 8.765,25.421 11.074,8.028 20.903 C 1.651 24.506,0.012 27.495,0.004 35.534 C -0.011 50.996,8.721 66.689,20.540 72.438 C 31.101 77.576,49.764 76.128,64.953 68.991 C 73.067 65.179,83.838 54.343,83.151 50.683 C 82.809 48.858,81.474 49.000,79.502 51.073 C 76.862 53.848,64.322 58.617,54.439 60.605 C 43.207 62.864,30.030 62.774,20.301 60.370 C 6.752 57.022,6.257 40.372,19.515 33.922 C 29.070 29.274,37.486 27.406,56.320 25.754 C 67.429 24.779,104.410 25.338,106.801 26.517 C 108.702 27.454,108.565 27.877,104.070 34.981 C 86.798 62.278,72.594 90.669,66.791 109.496 C 59.225 134.039,59.662 143.153,69.086 157.433 C 78.855 172.233,83.351 175.447,88.127 171.044 C 89.636 169.654,89.681 168.941,88.371 167.225 C 84.986 162.790,85.363 151.121,89.330 137.561 C 98.436 106.433,113.187 78.536,138.518 44.532 C 148.838 30.679,152.294 28.923,165.160 31.001 C 173.891 32.411,180.371 33.201,191.225 34.179 C 193.746 34.406,200.052 35.018,205.239 35.538 C 219.522 36.969,224.024 36.064,231.087 30.342 C 232.142 29.487,233.893 28.101,234.977 27.262 C 243.519 20.654,252.225 9.836,253.710 3.986 C 254.582 0.551,252.707 -1.184,250.362 0.888 M250.934 49.333 C 247.015 50.422,238.630 62.793,233.839 74.555 C 233.186 76.156,231.214 80.635,229.456 84.509 C 223.326 98.015,220.987 105.173,220.410 112.188 C 220.115 115.772,218.930 117.886,215.149 121.577 C 210.678 125.940,208.689 126.768,207.109 124.922 C 205.382 122.905,205.379 121.371,207.093 115.829 C 210.056 106.248,211.847 102.249,219.726 87.628 C 228.158 71.979,228.203 71.758,223.858 67.484 C 217.158 60.896,208.057 56.856,203.680 58.527 C 201.696 59.285,198.752 63.024,187.682 78.847 C 177.620 93.229,160.145 116.431,158.484 117.614 C 156.924 118.725,154.551 117.655,154.551 115.841 C 154.551 115.204,157.126 110.020,157.443 110.020 C 157.573 110.020,157.944 109.401,158.265 108.644 C 159.472 105.807,162.718 99.460,166.203 93.124 C 179.926 68.174,180.331 64.145,169.685 58.471 C 163.192 55.011,159.089 53.632,155.163 53.593 C 151.534 53.557,151.367 53.736,150.128 59.028 C 149.469 61.843,148.027 64.942,144.911 70.247 C 143.614 72.456,141.502 76.444,140.218 79.109 C 138.934 81.775,136.603 86.311,135.037 89.190 C 129.078 100.149,126.687 107.060,127.168 111.942 C 128.202 122.428,138.948 132.161,148.680 131.425 C 155.444 130.913,164.393 121.789,177.820 101.715 C 182.736 94.365,186.737 89.487,186.761 90.815 C 186.798 92.857,185.428 97.340,182.574 104.519 C 178.720 114.213,178.458 115.590,179.954 118.334 C 184.694 127.029,193.834 132.602,203.405 132.633 C 209.492 132.653,213.643 130.383,218.797 124.214 C 222.059 120.310,223.362 120.179,226.981 123.392 C 232.575 128.356,242.165 131.515,246.554 129.839 C 248.498 129.097,249.144 128.125,250.522 123.872 C 255.221 109.366,271.180 83.977,284.587 69.679 C 288.053 65.982,288.814 65.458,289.880 66.028 C 291.147 66.706,291.195 67.322,290.150 69.459 C 289.632 70.516,288.652 72.737,287.971 74.394 C 287.290 76.051,285.472 79.882,283.932 82.908 C 277.232 96.065,275.216 102.651,275.191 111.460 C 275.168 119.542,278.189 123.356,288.467 128.224 C 299.335 133.371,303.590 132.281,306.358 123.641 C 310.811 109.746,321.226 91.682,332.714 77.932 C 336.664 73.205,337.284 72.744,338.668 73.503 C 340.187 74.336,340.276 74.756,339.176 75.894 C 338.131 76.974,337.530 78.269,331.299 92.862 C 326.308 104.549,325.086 108.582,325.083 113.371 C 325.075 125.994,342.001 139.970,353.568 136.891 C 361.128 134.878,374.218 119.980,382.162 104.347 C 383.632 101.455,383.056 99.009,380.908 99.022 C 379.924 99.027,379.714 99.229,378.857 100.982 C 378.434 101.847,377.166 103.969,376.038 105.697 C 361.530 127.933,357.460 132.264,353.787 129.374 C 351.984 127.956,351.951 126.492,353.592 120.826 C 354.167 118.845,354.955 116.045,355.345 114.604 C 356.366 110.826,358.345 105.912,362.146 97.708 C 370.505 79.669,370.634 77.189,363.538 70.839 C 353.712 62.045,344.966 60.182,337.890 65.377 C 336.423 66.454,330.745 72.777,326.595 77.956 C 321.883 83.837,314.331 95.696,308.596 106.221 C 307.262 108.671,305.857 111.009,305.475 111.418 C 302.350 114.764,301.498 111.570,304.294 106.994 C 306.222 103.839,308.154 100.007,311.592 92.521 C 313.001 89.452,314.917 85.621,315.849 84.007 C 322.099 73.194,322.205 71.362,316.912 65.567 C 311.722 59.882,307.578 57.017,302.554 55.637 C 299.945 54.920,294.192 54.949,292.600 55.687 C 289.671 57.045,279.942 66.096,277.419 69.810 C 276.636 70.963,273.377 75.511,270.177 79.917 C 263.398 89.250,261.434 92.178,258.688 97.042 C 256.661 100.634,254.292 104.009,252.817 105.410 L 252.015 106.171 251.735 105.434 C 251.069 103.682,254.828 95.426,259.307 88.802 C 260.817 86.568,262.920 83.445,263.980 81.860 C 273.281 67.949,272.117 59.889,259.697 52.200 C 254.735 49.128,253.326 48.667,250.934 49.333 M38.401 202.423 C 38.054 204.125,30.124 250.513,30.124 250.845 C 30.124 251.582,41.083 251.362,41.249 250.622 C 41.322 250.298,42.269 244.846,43.355 238.507 C 44.440 232.168,45.405 226.627,45.499 226.195 C 45.637 225.556,46.464 227.810,49.920 238.245 L 54.170 251.081 59.078 251.081 L 63.986 251.081 68.283 238.389 C 70.646 231.408,72.612 225.663,72.653 225.623 C 72.693 225.582,73.645 230.999,74.768 237.660 C 75.890 244.321,76.870 250.095,76.944 250.491 L 77.079 251.212 82.547 251.212 C 87.091 251.212,88.016 251.149,88.016 250.840 C 88.016 250.636,86.189 239.624,83.955 226.368 C 81.722 213.113,79.895 202.140,79.895 201.985 C 79.895 201.793,78.206 201.703,74.589 201.703 L 69.283 201.703 64.341 216.568 C 61.623 224.745,59.318 231.523,59.219 231.633 C 59.121 231.742,56.812 225.052,54.088 216.767 L 49.136 201.703 43.842 201.703 L 38.549 201.703 38.401 202.423 M127.286 202.418 C 127.135 202.817,122.935 213.752,117.954 226.719 C 112.972 239.686,108.841 250.501,108.773 250.753 C 108.657 251.180,109.057 251.212,114.554 251.212 L 120.459 251.212 122.395 246.300 L 124.331 241.388 132.975 241.319 L 141.620 241.250 143.476 246.165 L 145.331 251.081 151.251 251.151 C 154.507 251.190,157.170 251.131,157.169 251.020 C 157.168 250.909,152.938 239.797,147.770 226.326 L 138.372 201.834 132.967 201.763 L 127.561 201.692 127.286 202.418 M182.318 226.457 L 182.318 251.212 187.950 251.212 L 193.582 251.212 193.585 242.109 L 193.588 233.006 198.365 242.109 L 203.142 251.212 209.364 251.212 C 212.786 251.212,215.586 251.177,215.586 251.136 C 215.586 251.094,213.051 246.242,209.953 240.353 C 206.855 234.465,204.350 229.636,204.386 229.624 C 213.189 226.572,215.635 213.009,208.643 206.025 C 205.155 202.541,201.097 201.728,187.099 201.709 L 182.318 201.703 182.318 226.457 M239.948 226.457 L 239.948 251.212 245.707 251.212 L 251.467 251.212 251.536 242.274 L 251.604 233.337 257.760 242.260 L 263.916 251.183 270.661 251.197 C 274.371 251.205,277.407 251.155,277.407 251.086 C 277.407 251.017,273.274 244.984,268.223 237.680 C 263.172 230.375,259.016 224.320,258.989 224.224 C 258.962 224.128,262.800 219.094,267.518 213.037 C 272.236 206.981,276.097 201.951,276.097 201.860 C 276.097 201.769,273.008 201.725,269.232 201.764 L 262.368 201.834 256.986 208.706 L 251.604 215.577 251.535 208.640 L 251.465 201.703 245.706 201.703 L 239.948 201.703 239.948 226.457 M300.982 226.457 L 300.982 251.212 314.997 251.212 L 329.011 251.212 329.011 245.711 L 329.011 240.210 320.629 240.210 L 312.246 240.210 312.246 235.102 L 312.246 229.993 320.629 229.993 L 329.011 229.993 329.011 224.492 L 329.011 218.991 320.629 218.991 L 312.246 218.991 312.246 215.848 L 312.246 212.705 320.629 212.705 L 329.011 212.705 329.011 207.204 L 329.011 201.703 314.997 201.703 L 300.982 201.703 300.982 226.457 M350.491 207.204 L 350.491 212.705 354.682 212.705 L 358.874 212.705 358.874 231.958 L 358.874 251.212 364.637 251.212 L 370.399 251.212 370.399 231.958 L 370.399 212.705 374.722 212.705 L 379.044 212.705 379.044 207.204 L 379.044 201.703 364.768 201.703 L 350.491 201.703 350.491 207.204 M53.176 221.735 C 56.411 231.456,59.130 239.325,59.219 239.220 C 59.308 239.116,62.019 231.162,65.243 221.546 L 71.106 204.060 74.429 204.060 L 77.751 204.060 78.179 206.483 C 78.415 207.816,80.116 217.895,81.959 228.880 L 85.310 248.854 82.238 248.854 C 79.268 248.854,79.162 248.834,79.027 248.265 C 78.951 247.940,77.678 240.514,76.197 231.760 C 74.717 223.007,73.428 215.935,73.333 216.043 C 73.237 216.152,70.696 223.581,67.686 232.551 L 62.213 248.861 59.091 248.792 L 55.969 248.723 50.469 232.220 C 47.444 223.143,44.920 215.863,44.860 216.042 C 44.800 216.221,43.491 223.647,41.950 232.545 L 39.149 248.723 35.969 248.796 C 33.032 248.864,32.797 248.834,32.901 248.403 C 32.963 248.147,34.660 238.330,36.673 226.588 C 38.686 214.846,40.396 204.974,40.473 204.650 C 40.609 204.077,40.705 204.060,43.953 204.060 L 47.294 204.060 53.176 221.735 M145.126 226.220 C 149.806 238.409,153.674 248.487,153.722 248.617 C 153.771 248.750,152.339 248.854,150.448 248.853 L 147.086 248.852 145.226 243.942 L 143.365 239.031 133.019 238.962 L 122.672 238.894 120.733 243.874 L 118.795 248.854 115.433 248.854 C 113.487 248.854,112.108 248.752,112.159 248.612 C 112.207 248.479,116.075 238.400,120.755 226.215 L 129.265 204.060 132.941 204.060 L 136.617 204.060 145.126 226.220 M200.563 204.724 C 212.457 206.772,214.128 223.229,202.881 227.555 C 201.873 227.943,201.010 228.286,200.963 228.317 C 200.888 228.366,206.979 240.067,210.393 246.431 L 211.693 248.854 208.177 248.854 L 204.661 248.854 199.414 238.834 L 194.168 228.815 192.696 228.736 L 191.225 228.658 191.225 238.756 L 191.225 248.854 187.950 248.854 L 184.676 248.854 184.676 226.415 L 184.676 203.976 191.461 204.151 C 195.529 204.255,199.173 204.485,200.563 204.724 M249.116 213.261 C 249.116 220.592,249.182 222.406,249.443 222.188 C 249.623 222.038,252.895 217.905,256.713 213.004 L 263.654 204.093 267.513 204.077 L 271.371 204.060 263.649 213.986 C 259.402 219.445,255.927 223.985,255.927 224.075 C 255.927 224.215,268.524 242.535,271.845 247.224 L 273.010 248.868 269.143 248.796 L 265.275 248.723 257.490 237.504 C 253.208 231.334,249.572 226.153,249.410 225.992 C 249.192 225.774,249.116 228.711,249.116 237.276 L 249.116 248.854 245.711 248.854 L 242.305 248.854 242.305 226.457 L 242.305 204.060 245.711 204.060 L 249.116 204.060 249.116 213.261 M326.654 207.204 L 326.654 210.347 318.271 210.347 L 309.889 210.347 309.889 215.848 L 309.889 221.349 318.271 221.349 L 326.654 221.349 326.654 224.492 L 326.654 227.636 318.271 227.636 L 309.889 227.636 309.889 235.102 L 309.889 242.567 318.271 242.567 L 326.654 242.567 326.654 245.711 L 326.654 248.854 314.997 248.854 L 303.340 248.854 303.340 226.457 L 303.340 204.060 314.997 204.060 L 326.654 204.060 326.654 207.204 M376.686 207.204 L 376.686 210.347 372.364 210.347 L 368.042 210.347 368.042 229.601 L 368.042 248.854 364.637 248.854 L 361.231 248.854 361.231 229.601 L 361.231 210.347 357.040 210.347 L 352.849 210.347 352.849 207.204 L 352.849 204.060 364.768 204.060 L 376.686 204.060 376.686 207.204 M191.225 216.338 L 191.225 222.397 194.975 222.397 C 201.730 222.397,204.060 220.851,204.056 216.372 C 204.052 212.308,201.768 210.788,195.182 210.471 L 191.225 210.280 191.225 216.338 M129.010 222.401 C 126.878 227.878,125.192 232.418,125.264 232.490 C 125.336 232.562,128.881 232.590,133.140 232.551 L 140.886 232.482 137.044 222.468 C 134.931 216.961,133.131 212.452,133.044 212.449 C 132.957 212.445,131.141 216.924,129.010 222.401 M199.236 213.258 C 200.715 213.706,201.572 214.896,201.572 216.501 C 201.572 219.164,200.274 219.984,196.005 220.019 L 193.582 220.039 193.582 216.363 L 193.582 212.686 196.005 212.849 C 197.338 212.939,198.792 213.123,199.236 213.258 M135.262 224.625 C 136.362 227.508,137.263 229.954,137.263 230.061 C 137.263 230.168,135.305 230.255,132.912 230.255 C 129.539 230.255,128.591 230.182,128.689 229.928 C 132.072 221.203,132.960 219.041,133.096 219.196 C 133.186 219.300,134.161 221.743,135.262 224.625 " stroke="none" fill="#046cd4" fill-rule="evenodd"></path><path id="path1" d="" stroke="none" fill="#086cd4" fill-rule="evenodd"></path><path id="path2" d="" stroke="none" fill="#086cd4" fill-rule="evenodd"></path><path id="path3" d="" stroke="none" fill="#086cd4" fill-rule="evenodd"></path><path id="path4" d="" stroke="none" fill="#086cd4" fill-rule="evenodd"></path></g></svg>